<svg width="26" height="26" fill="none" xmlns="http://www.w3.org/2000/svg"><circle cx="13.239" cy="12.762" r="12.762" fill="url(#paint0_linear)"/><path d="M17.438 7.657h-7.76c-.877 0-1.544.668-1.544 1.544v7.76c0 .876.667 1.544 1.543 1.544h7.76c.877 0 1.544-.668 1.544-1.544v-7.76c0-.876-.667-1.544-1.543-1.544zm-3.88 8.678c1.794 0 3.254-1.418 3.254-3.129 0-.292-.042-.626-.125-.876h.918v4.423a.418.418 0 01-.418.417h-7.26a.418.418 0 01-.416-.418v-4.464h.96a3.178 3.178 0 00-.126.877c-.042 1.752 1.419 3.17 3.213 3.17zm0-1.251c-1.169 0-2.086-.918-2.086-2.045 0-1.126.917-2.044 2.086-2.044 1.168 0 2.086.918 2.086 2.044 0 1.168-.918 2.045-2.086 2.045zm4.005-4.464c0 .25-.209.458-.46.458h-1.167a.463.463 0 01-.46-.458V9.492c0-.25.21-.459.46-.459h1.168c.25 0 .459.209.459.459v1.127z" fill="#fff"/><defs><linearGradient id="paint0_linear" x1="5.9" y1="22.652" x2="22.81" y2="5.105" gradientUnits="userSpaceOnUse"><stop stop-color="#EEA054"/><stop offset=".503" stop-color="#D64763"/><stop offset="1" stop-color="#B62A99"/></linearGradient></defs></svg>