<svg width="23" height="23" fill="none" xmlns="http://www.w3.org/2000/svg"><circle cx="11.782" cy="11.219" r="11.219" fill="#7C509A"/><path d="M15.29 5.916a17.38 17.38 0 00-6.497 0c-.946.204-2.138 1.347-2.344 2.245a12.828 12.828 0 000 5.308c.247.898 1.44 2.041 2.344 2.245.041 0 .082.041.082.082v2.572c0 .123.165.205.247.082l1.233-1.266s.987-1.02 1.152-1.184c0 0 .04-.04.082-.04 1.233.04 2.508-.082 3.741-.286.946-.204 2.138-1.348 2.344-2.246a12.83 12.83 0 000-5.308c-.247-.857-1.44-2-2.385-2.204zm.04 7.675c-.205.409-.452.735-.863.94l-.37.122c-.165-.04-.288-.082-.411-.123-1.316-.53-2.55-1.265-3.536-2.327a9.82 9.82 0 01-1.357-2.041c-.165-.368-.329-.694-.452-1.062-.124-.326.082-.653.287-.898.206-.245.453-.408.74-.53.206-.123.412-.042.576.122.33.408.658.816.905 1.265.164.286.123.613-.165.817-.082.04-.123.082-.205.163-.041.041-.124.082-.165.164a.395.395 0 00-.04.367c.328.94.945 1.674 1.89 2.082a.981.981 0 00.494.123c.288-.041.41-.368.617-.53.205-.164.452-.164.698-.042.206.123.412.286.658.45.206.163.411.285.617.448.123.082.164.286.082.49zm-1.727-3.062c-.082 0-.04 0 0 0-.164 0-.205-.081-.246-.204 0-.082 0-.204-.041-.286a.776.776 0 00-.288-.449l-.247-.122c-.123-.041-.206-.041-.329-.041-.123-.041-.164-.123-.164-.245 0-.082.123-.163.205-.163.658.04 1.152.408 1.234 1.184v.163c0 .082-.041.163-.124.163zm-.41-1.796a3.095 3.095 0 00-.659-.204c-.082 0-.205-.041-.287-.041-.124 0-.206-.082-.165-.204 0-.123.082-.204.206-.164.41.041.78.123 1.15.286.741.368 1.152.98 1.275 1.797v.53c-.04.164-.328.204-.37 0 0-.04-.04-.122-.04-.163a2.37 2.37 0 00-.247-1.061 2.205 2.205 0 00-.864-.776zm2.22 2.45c-.124 0-.206-.123-.206-.245 0-.245-.041-.49-.082-.735-.165-1.307-1.234-2.368-2.508-2.573-.206-.04-.412-.04-.576-.081-.123 0-.288 0-.329-.164-.041-.122.082-.245.206-.245H12c1.686.041.082 0 0 0 1.727.041 3.166 1.184 3.454 2.9.04.285.082.57.082.898.082.122 0 .244-.124.244z" fill="#fff"/></svg>