<svg width="24" height="23" fill="none" xmlns="http://www.w3.org/2000/svg"><circle cx="11.89" cy="11.219" r="11.219" fill="#48C95F"/><path d="M16.337 6.767a5.85 5.85 0 00-4.146-1.718c-3.242 0-5.869 2.617-5.869 5.849 0 1.022.288 2.045.78 2.904l-.82 3.026L9.4 16.01a6 6 0 002.79.695c3.243 0 5.87-2.617 5.87-5.848-.041-1.514-.616-2.986-1.724-4.09zm-1.313 6.217c-.124.327-.698.654-.986.695a2.33 2.33 0 01-.902-.041c-.206-.082-.493-.164-.821-.327-1.478-.614-2.422-2.086-2.504-2.209-.082-.082-.616-.777-.616-1.513 0-.736.37-1.064.493-1.227.123-.164.287-.164.41-.164h.288c.082 0 .205-.04.328.246.123.286.41 1.022.451 1.063a.26.26 0 010 .245.855.855 0 01-.164.246c-.082.082-.164.204-.205.245-.082.082-.164.164-.082.287.082.163.37.613.82 1.022.575.49 1.027.655 1.191.736.164.082.246.041.328-.04.082-.082.37-.41.452-.573.082-.164.205-.123.328-.082.123.04.862.409.985.49.164.083.247.123.287.164.042.123.042.41-.082.737z" fill="#fff"/></svg>